<svg width="24" height="24" viewBox="0 0 24 24" fill="none" xmlns="http://www.w3.org/2000/svg">
    <mask id="mask0" mask-type="alpha" maskUnits="userSpaceOnUse" x="0" y="0" width="24" height="24">
    <path d="M0 0H24V24H0V0Z" fill="white"/>
    </mask>
    <g mask="url(#mask0)">
    <path fill-rule="evenodd" clip-rule="evenodd" d="M22.8227 20.6393C22.4621 20.3459 22.4038 20.0748 22.0442 19.7814C22.0794 19.7468 21.1391 18.7254 20.6509 18.232C20.6509 18.232 20.453 18.1031 19.9658 17.6106C19.8031 17.4461 19.768 17.4817 19.7328 17.5162C19.768 17.4817 19.768 17.4817 19.8031 17.4461C19.5701 17.3517 19.3149 16.9527 19.117 16.8238C19.1522 16.7882 19.1522 16.7882 19.1873 16.7527C18.7916 16.4948 18.5364 16.0948 18.1768 15.8024C18.212 15.7668 18.212 15.7668 18.2471 15.7313C18.0844 15.5668 17.9227 15.4023 17.9568 15.3678L18.0271 15.2967C17.8995 15.0967 17.5038 14.8388 17.5741 14.7677C17.5389 14.8033 17.5389 14.8033 17.5038 14.8388C16.8528 14.1809 16.3998 13.6529 15.9478 13.124C15.6484 12.7493 15.3129 12.3665 14.9553 11.9807C15.7328 11.2568 16.5093 10.5583 17.2838 9.91048C17.4817 9.78154 17.8774 9.52263 18.0753 9.39369C19.4807 8.18546 21.0718 6.50613 22.3024 5.12125C22.9181 4.42779 23.0206 3.54548 23.0206 3.54548C23.114 3.30992 23.1361 3.00432 22.9031 3.09772C22.5816 3.35968 21.9036 4.03689 21.6605 4.08055C22.454 3.28251 23.2416 2.47838 24 1.64684C23.3149 2.26923 22.7574 2.6916 22.1416 3.38404C22.1075 3.34851 22.0372 3.27743 21.8744 3.44192C21.8614 3.4541 21.8483 3.46628 21.8363 3.47948C21.8493 3.19113 21.991 2.74541 22.1105 2.6256C22.2029 2.39005 22.9684 1.19096 23.0608 0.956426C23.4435 0.356375 21.4545 1.30569 20.6991 1.85599C20.4852 1.99611 20.453 1.93113 20.45 1.82655C20.5254 1.74228 20.5967 1.65293 20.659 1.55546C20.5927 1.62247 20.5203 1.69862 20.45 1.77172C20.453 1.69456 20.4581 1.61232 20.4189 1.57272C20.1286 1.93722 19.8614 1.99611 19.5711 2.36061C19.5359 2.32405 18.5254 3.27439 18.0372 3.76783C18.0372 3.76783 17.9106 3.96277 17.4535 4.42779C17.0748 4.72324 16.7102 4.94864 16.3707 5.11109C16.1949 5.18115 15.7107 5.68475 15.2737 6.14062C14.1919 7.10619 13.122 8.12658 12.0593 9.149C11.8905 8.99365 11.7228 8.83831 11.557 8.68703C11.4063 8.53473 11.2074 8.45554 11.2496 8.62814C10.6168 7.92757 9.99799 7.22802 9.42642 6.52949C9.29885 6.32947 9.04269 5.93045 8.91512 5.73043C7.71974 4.31001 6.05826 2.70175 4.6881 1.45698C4.00201 0.835604 3.12908 0.732042 3.12908 0.732042C3.07484 0.709705 3.01758 0.69346 2.96233 0.681276C2.72828 0.455876 2.50126 0.222354 2.26318 0C2.47313 0.237584 2.65997 0.456891 2.84279 0.671123C2.71823 0.669092 2.63184 0.712751 2.68609 0.849818C2.97639 1.21432 3.78905 2.03571 3.64942 2.17683C3.61426 2.21339 3.45153 2.0489 3.2888 1.88442C3.14917 2.02555 2.38071 1.8164 2.21899 1.65192C1.98493 1.55851 0.799598 0.784838 0.567554 0.691429C-0.0261175 0.303579 0.912104 2.3139 1.45756 3.07742C1.71271 3.47745 1.28277 3.25408 1.1773 3.36069C1.53792 3.65412 1.59618 3.9252 1.95681 4.21863C1.92064 4.25417 2.86087 5.27557 3.34907 5.768C3.34907 5.768 3.54696 5.89695 4.03415 6.39039C4.19689 6.55385 4.23204 6.51933 4.2672 6.4838C4.23204 6.51933 4.23204 6.51933 4.19689 6.55385C4.42993 6.64828 4.68508 7.04831 4.88297 7.17726C4.84781 7.21279 4.84782 7.21279 4.81266 7.24833C5.20844 7.5052 5.46359 7.90524 5.8232 8.19866C5.78805 8.23318 5.78805 8.23318 5.75289 8.26872C5.91562 8.43422 6.07835 8.59768 6.04319 8.63322L5.97288 8.70429C6.10146 8.90329 6.49623 9.16118 6.42592 9.23225C6.46107 9.19672 6.46107 9.19672 6.49623 9.16118C7.14716 9.81911 7.6002 10.3481 8.05223 10.876C8.35158 11.2507 8.68709 11.6345 9.0447 12.0203C8.2672 12.7432 7.49071 13.4417 6.71622 14.0905C6.51833 14.2195 6.12255 14.4774 5.92466 14.6063C4.52034 15.8145 2.92818 17.4939 1.69764 18.8798C1.08187 19.5722 0.979407 20.4545 0.979407 20.4545C0.886991 20.6901 0.864892 20.9967 1.09694 20.9023C1.41838 20.6403 2.09643 19.9631 2.33953 19.9205C1.54596 20.7175 0.759417 21.5216 0 22.3532C0.685083 21.7318 1.2436 21.3094 1.85836 20.617C1.89352 20.6525 1.96283 20.7226 2.12557 20.5581C2.13862 20.5469 2.15168 20.5337 2.16474 20.5215C2.15068 20.8089 2.00904 21.2546 1.89051 21.3754C1.79709 21.611 1.03265 22.809 0.939227 23.0446C0.556504 23.6436 2.54545 22.6953 3.30085 22.144C3.51482 22.0049 3.54797 22.0689 3.54997 22.1734C3.47464 22.2587 3.40331 22.3471 3.34103 22.4445C3.40733 22.3785 3.48066 22.3014 3.54997 22.2283C3.54797 22.3054 3.54294 22.3887 3.58112 22.4273C3.87142 22.0628 4.13862 22.0049 4.42893 21.6404C4.46509 21.6759 5.47464 20.7256 5.96283 20.2322C5.96283 20.2322 6.0894 20.0382 6.54646 19.5722C6.92516 19.2778 7.2898 19.0514 7.62933 18.8889C7.80512 18.8189 8.2893 18.3153 8.72627 17.8604C9.80814 16.8938 10.878 15.8734 11.9407 14.851C12.1095 15.0074 12.2772 15.1617 12.443 15.314C12.5937 15.4663 12.7926 15.5455 12.7504 15.3719C13.3832 16.0724 14.002 16.772 14.5746 17.4705C14.7022 17.6705 14.9573 18.0706 15.0849 18.2706C16.2803 19.69 17.9417 21.2993 19.3119 22.543C19.998 23.1654 20.8709 23.269 20.8709 23.269C20.9252 23.2903 20.9824 23.3065 21.0387 23.3187C21.2727 23.5451 21.4997 23.7776 21.7368 24C21.5269 23.7634 21.34 23.5431 21.1572 23.3289C21.2818 23.3309 21.3682 23.2883 21.3139 23.1502C21.0236 22.7857 20.2109 21.9643 20.3516 21.8232C20.3867 21.7876 20.5485 21.9511 20.7112 22.1166C20.8508 21.9744 21.6193 22.1836 21.781 22.3481C22.0151 22.4425 23.2004 23.2162 23.4324 23.3096C24.0261 23.6964 23.0879 21.6861 22.5424 20.9226C22.2873 20.5225 22.7182 20.7459 22.8227 20.6393Z" fill="white"/>
    </g>
    </svg>
