<svg width="24" height="20" viewBox="0 0 24 20" fill="none" xmlns="http://www.w3.org/2000/svg">
    <path fill-rule="evenodd" clip-rule="evenodd" d="M0.485961 0.0967264C1.45788 -0.248725 7.6872 0.442178 12.8951 0.442178C16.3671 0.442178 19.828 0.327027 23.2779 0.0967264C24.2407 2.31032 24.2407 3.56891 23.2779 3.87249C21.8337 4.32787 11.3448 3.41712 7.6365 3.41712C5.16427 3.41712 2.78076 3.56891 0.485961 3.87249C-0.161987 1.58562 -0.161987 0.327027 0.485961 0.0967264Z" fill="white"/>
    <path fill-rule="evenodd" clip-rule="evenodd" d="M0.485961 8.09673C1.45788 7.75127 7.6872 8.44218 12.8951 8.44218C16.3671 8.44218 19.828 8.32703 23.2779 8.09673C24.2407 10.3103 24.2407 11.5689 23.2779 11.8725C21.8337 12.3279 11.3448 11.4171 7.6365 11.4171C5.16427 11.4171 2.78076 11.5689 0.485961 11.8725C-0.161987 9.58562 -0.161987 8.32703 0.485961 8.09673Z" fill="white"/>
    <path fill-rule="evenodd" clip-rule="evenodd" d="M0.485961 19.9033C1.45788 20.2487 7.6872 19.5578 12.8951 19.5578C16.3671 19.5578 19.828 19.673 23.2779 19.9033C24.2407 17.6897 24.2407 16.4311 23.2779 16.1275C21.8337 15.6721 11.3448 16.5829 7.6365 16.5829C5.16427 16.5829 2.78076 16.4311 0.485961 16.1275C-0.161987 18.4144 -0.161987 19.673 0.485961 19.9033Z" fill="white"/>
    </svg>
